<svg width="16" height="16" viewBox="0 0 16 16" fill="none" xmlns="http://www.w3.org/2000/svg">
<g clip-path="url(#clip0_5001_10916)">
<path d="M7.99992 4.66665C8.92039 4.66665 9.66658 3.92045 9.66658 2.99998C9.66658 2.07951 8.92039 1.33331 7.99992 1.33331C7.07944 1.33331 6.33325 2.07951 6.33325 2.99998C6.33325 3.92045 7.07944 4.66665 7.99992 4.66665Z" stroke="#F7F7F8" stroke-width="1.33333" stroke-linecap="round" stroke-linejoin="round"/>
<path d="M6.79995 4.20001L4.19995 6.80001" stroke="#F7F7F8" stroke-width="1.33333" stroke-linecap="round" stroke-linejoin="round"/>
<path d="M2.99992 9.66665C3.92039 9.66665 4.66658 8.92045 4.66658 7.99998C4.66658 7.07951 3.92039 6.33331 2.99992 6.33331C2.07944 6.33331 1.33325 7.07951 1.33325 7.99998C1.33325 8.92045 2.07944 9.66665 2.99992 9.66665Z" stroke="#F7F7F8" stroke-width="1.33333" stroke-linecap="round" stroke-linejoin="round"/>
<path d="M4.66663 8H11.3333" stroke="#F7F7F8" stroke-width="1.33333" stroke-linecap="round" stroke-linejoin="round"/>
<path d="M12.9999 9.66665C13.9204 9.66665 14.6666 8.92045 14.6666 7.99998C14.6666 7.07951 13.9204 6.33331 12.9999 6.33331C12.0794 6.33331 11.3333 7.07951 11.3333 7.99998C11.3333 8.92045 12.0794 9.66665 12.9999 9.66665Z" stroke="#F7F7F8" stroke-width="1.33333" stroke-linecap="round" stroke-linejoin="round"/>
<path d="M9.19995 11.8L11.8 9.20001" stroke="#F7F7F8" stroke-width="1.33333" stroke-linecap="round" stroke-linejoin="round"/>
<path d="M7.99992 14.6666C8.92039 14.6666 9.66658 13.9205 9.66658 13C9.66658 12.0795 8.92039 11.3333 7.99992 11.3333C7.07944 11.3333 6.33325 12.0795 6.33325 13C6.33325 13.9205 7.07944 14.6666 7.99992 14.6666Z" stroke="#F7F7F8" stroke-width="1.33333" stroke-linecap="round" stroke-linejoin="round"/>
</g>
<defs>
<clipPath id="clip0_5001_10916">
<rect width="16" height="16" fill="white"/>
</clipPath>
</defs>
</svg>
