<svg width="20"
    height="21"
    viewBox="0 0 20 21"
    fill="none"
    xmlns="http://www.w3.org/2000/svg">
    <path fill-rule="evenodd"
        clip-rule="evenodd"
        d="M9.74331 2.69415C5.31586 2.69415 1.73669 6.29971 1.73669 10.7603C1.73669 14.3258 4.02999 17.344 7.2114 18.4122C7.60916 18.4925 7.75485 18.2387 7.75485 18.0251C7.75485 17.8381 7.74174 17.1972 7.74174 16.5293C5.51449 17.0102 5.05069 15.5678 5.05069 15.5678C4.69276 14.633 4.16241 14.3927 4.16241 14.3927C3.43343 13.8986 4.21551 13.8986 4.21551 13.8986C5.02414 13.952 5.44845 14.7265 5.44845 14.7265C6.16415 15.955 7.31743 15.6079 7.7814 15.3942C7.84761 14.8734 8.05985 14.5128 8.2852 14.3126C6.50881 14.1256 4.63982 13.4312 4.63982 10.3328C4.63982 9.45145 4.95776 8.73034 5.46156 8.16951C5.38207 7.96924 5.10362 7.14111 5.54121 6.03273C5.54121 6.03273 6.21725 5.81902 7.74158 6.8607C8.3942 6.68413 9.06723 6.59431 9.74331 6.59356C10.4194 6.59356 11.1085 6.68714 11.7449 6.8607C13.2694 5.81902 13.9454 6.03273 13.9454 6.03273C14.383 7.14111 14.1044 7.96924 14.0249 8.16951C14.542 8.73034 14.8468 9.45145 14.8468 10.3328C14.8468 13.4312 12.9778 14.1121 11.1882 14.3126C11.4799 14.5663 11.7316 15.0469 11.7316 15.8082C11.7316 16.8899 11.7185 17.758 11.7185 18.025C11.7185 18.2387 11.8644 18.4925 12.262 18.4124C15.4434 17.3438 17.7367 14.3258 17.7367 10.7603C17.7498 6.29971 14.1575 2.69415 9.74331 2.69415Z"
        fill="var(--color-text-primary)"/>
</svg>
